<svg id="Layer_1" data-name="Layer 1" xmlns="http://www.w3.org/2000/svg" viewBox="0 0 222 81"><defs><style>.cls-1,.cls-2{fill:#140958;}.cls-1{fill-rule:evenodd;}</style></defs><title>Purcell Exports Logo</title><path class="cls-1" d="M110.46,45.67c27.15,0,51.22,2.74,66.21,7a645.57,645.57,0,0,0-66.21-3.14,645.43,645.43,0,0,0-66.21,3.14c15-4.22,39.06-7,66.21-7"/><path class="cls-1" d="M90.18,35.47a10.27,10.27,0,0,0,1.43,4.25c1.53,1.85,6.29,6.08,6.37,7.57l.08,1.49h5.8a12,12,0,0,0-2.17-3.38c-1.58-1.78-5-5-4.68-6.53.21-.87,2.41-3.13,4.19-4.86-2.81-.81-5.31-1.71-6.54-2.18a27,27,0,0,1-4.48,3.64"/><path class="cls-1" d="M163.09,31.28c-2.19-7.61-7.25-5.42-12.41-12.63a21.62,21.62,0,0,0-8.62-7.46,18,18,0,0,0-2.15-.82,7.48,7.48,0,0,1-.68-.61c-13.23-13.56-15.82-.5-29.52,1.8-7.51,1.26-16.13,1.51-18.84,2.16C86.09,14.87,85,15.46,81,18.63c-7,5.48-8,11.75-14.86,15.81a8.3,8.3,0,0,0-3.07.53,9.48,9.48,0,0,0-3.1,2.6,10,10,0,0,0,4.68-.16,3.74,3.74,0,0,0,1.85-1.81C72.21,33.34,77,25,83,20.64c-.17.43-.32.87-.48,1.3-1.21,3.39-5.4,7.5-8.3,13.3a84.57,84.57,0,0,0-5,14.11l8.24-.25a10.67,10.67,0,0,0-.69-1.37c-.68-1.28-2.65-2.86-.56-5.52A17.87,17.87,0,0,1,85.85,36c4.28-1,8.47-5.72,8.47-5.72s10.31,4.11,16.12,4a43.22,43.22,0,0,0,10.47-1.44l.81.88c.81.89,13.62,10.8,15.31,12a2.85,2.85,0,0,1,1.21,3h7.26s-.49-1.61-3.47-3.3-8.06-8.22-8.79-11.61a4.34,4.34,0,0,1,.69-3,5.3,5.3,0,0,0,.7,0,6.69,6.69,0,0,1,3.44.6A3.73,3.73,0,0,1,139.85,34a9.23,9.23,0,0,1-.12,4.23c.67,0,1.65-.12,2.58-.06,1.35.09.9.6,2.28,1.62s2.17-.89,2.72-2,3-3.25,4.81-5.25a9,9,0,0,0,1.81-4c-3.85-.87-6.05-2.49-7.66-6.23,7.16,7.08,8.07,3.25,13.42,6,1.72.88,3.7,4,3.7,4s-.08-.26-.3-1M89.82,32.55c0-.5-.06-.81-.06-.81l3.57-2.33a25.18,25.18,0,0,1-3.51,3.14m13.64-.66a80.22,80.22,0,0,1-8.65-2.84l-.58-.22.72-.48,8.59,3.47Zm22.19,3.4c-1.6-1.27-2.75-2.21-3-2.43l-.81-.88-.55-.61-.79.22a30.62,30.62,0,0,1-3.56.78l.21-1,5.24-.72,3.87,4.07s-.25.19-.66.53m22.57-4.53c.32-.54,1.5-.64,1.5-.64a3,3,0,0,1-.47,1.28,4.56,4.56,0,0,1-1.29,1,3.61,3.61,0,0,1,.26-1.61"/><path class="cls-1" d="M123.56,37c-3,2.48-7.38,6.29-7.49,7.35-.16,1.61.81,2.74.93,3.42s.16,1.13.16,1.13h-5s-.12-1.08-.4-2.66S114,41.85,114.9,40a31.57,31.57,0,0,0,1.46-4.89c1.83-.27,3.28-.6,4.12-.8l.26.29c.25.27,1.33,1.16,2.82,2.36"/><path class="cls-2" d="M10.2,58.1c3,0,4.9,1.74,4.9,4.59a4.66,4.66,0,0,1-6.91,4v-.22s3.9.84,5-2.56a5,5,0,0,0,.16-1.43c-.06-2.18-1.19-3.64-3.2-3.64H7.38V73A1.51,1.51,0,0,0,8.9,74.48h.3v.24H4v-.24h.3A1.52,1.52,0,0,0,5.83,73V59.71a1.52,1.52,0,0,0-1.51-1.37H4V58.1Z"/><path class="cls-2" d="M33.73,58.1v.24h-.39a1.21,1.21,0,0,0-1.25,1.12v9.39c0,3.72-2.56,6.2-6.4,6.2s-6.58-2.46-6.58-6.16V59.51a1.21,1.21,0,0,0-1.26-1.17h-.38V58.1h4.82v.24H21.9a1.2,1.2,0,0,0-1.25,1.14v9.06c0,3.46,2,5.76,5,5.76S31,72.12,31,68.84V59.48a1.2,1.2,0,0,0-1.25-1.14h-.39V58.1Z"/><path class="cls-2" d="M42.43,58.1c2.88,0,4.64,1.7,4.64,4.46,0,2.3-1.75,4.53-4,4.53a5.68,5.68,0,0,1,1.7,1.67s2,2.92,3,3.93a4.3,4.3,0,0,0,3.23,1.79v.24h-1.3a5.09,5.09,0,0,1-4.14-2.08c-.27-.33-3-4.22-3.13-4.45-.62-.78-1.31-1.6-2.18-1.6v-.22s.54,0,1.25,0a3.54,3.54,0,0,0,3.71-2.46,5.28,5.28,0,0,0,.15-1.42c-.06-2.15-1.18-3.52-2.95-3.62-1.2-.07-2.64,0-3,0V73a1.52,1.52,0,0,0,1.52,1.49h.3v.24H36v-.24h.3A1.52,1.52,0,0,0,37.85,73V59.83a1.51,1.51,0,0,0-1.52-1.49H36V58.1Z"/><path class="cls-2" d="M66.47,67.79l-.29,3.73a7.36,7.36,0,0,1-6.67,3.53c-5,0-8.48-3.42-8.48-8.66s3.39-8.62,8.62-8.62a10.18,10.18,0,0,1,5.61,1.6l.48,3.36h-.2a5.68,5.68,0,0,0-5.9-4.25c-4.17,0-6.83,3.16-6.83,7.88s2.71,7.88,6.7,8c3.37,0,6.22-1.69,6.76-6.55Z"/><path class="cls-2" d="M78.91,74.72H69.07v-.24h.3A1.52,1.52,0,0,0,70.9,73V59.7a1.52,1.52,0,0,0-1.52-1.36h-.3V58.1H76a10.53,10.53,0,0,0,2.83-.43v3h-.24v-.42a1.41,1.41,0,0,0-1.33-1.41H72.44v7.34h4A1.17,1.17,0,0,0,77.6,65v-.35h.23V68.4H77.6v-.35a1.17,1.17,0,0,0-1.12-1.17h-4V74h3.41c2.51,0,3.48-1.3,4.21-3.11h.24Z"/><path class="cls-2" d="M93.76,70.89l-1.39,3.83H82.53v-.24h.29A1.51,1.51,0,0,0,84.35,73V59.83a1.51,1.51,0,0,0-1.52-1.49h-.29V58.1h5.19v.24h-.3a1.52,1.52,0,0,0-1.52,1.49V74h3.4c2.52,0,3.48-1.3,4.22-3.11Z"/><path class="cls-2" d="M106.74,70.89l-1.38,3.83H95.52v-.24h.3A1.52,1.52,0,0,0,97.34,73V59.83a1.52,1.52,0,0,0-1.52-1.49h-.3V58.1h5.19v.24h-.31a1.53,1.53,0,0,0-1.52,1.49V74h3.41c2.52,0,3.48-1.3,4.21-3.11Z"/><path class="cls-2" d="M126.18,74.72h-9.85v-.24h.3A1.52,1.52,0,0,0,118.16,73V59.7a1.52,1.52,0,0,0-1.51-1.36h-.3V58.1h6.94a10.53,10.53,0,0,0,2.83-.43v3h-.24v-.42a1.41,1.41,0,0,0-1.33-1.41H119.7v7.34h4A1.17,1.17,0,0,0,124.86,65v-.35h.23V68.4h-.23v-.35a1.17,1.17,0,0,0-1.12-1.17h-4V74h3.41c2.51,0,3.48-1.3,4.21-3.11h.24Z"/><path class="cls-2" d="M144.57,74.48v.24h-5.79v-.24h.3a1,1,0,0,0,.84-1.45l-3.66-5.77L132.61,73a1,1,0,0,0,.84,1.46h.3v.24h-5.38v-.24h.33a3.12,3.12,0,0,0,2.41-1.4l4.55-6.77-4.17-6.58a3.07,3.07,0,0,0-2.39-1.39h-.33V58.1h5.76v.24h-.3a1,1,0,0,0-.85,1.44l3.27,5.14,3.24-5.11a1,1,0,0,0-.81-1.47h-.3V58.1h5.35v.24h-.33a3.05,3.05,0,0,0-2.39,1.39l-4.16,6.13,4.61,7.24a3.06,3.06,0,0,0,2.39,1.38Z"/><path class="cls-2" d="M151.94,58.1c3,0,4.89,1.74,4.89,4.59a4.66,4.66,0,0,1-6.9,4v-.22s3.91.84,5-2.56a5,5,0,0,0,.15-1.43c-.06-2.18-1.18-3.64-3.2-3.64h-2.74V73a1.52,1.52,0,0,0,1.53,1.49h.3v.24h-5.2v-.24h.3A1.52,1.52,0,0,0,147.57,73V59.71a1.53,1.53,0,0,0-1.52-1.37h-.29V58.1Z"/><path class="cls-2" d="M176.86,66.41c0,5.19-3.48,8.64-8.53,8.64s-8.53-3.45-8.53-8.64,3.48-8.64,8.53-8.64,8.53,3.45,8.53,8.64m-1.82,0c0-4.76-2.68-7.93-6.71-7.93s-6.72,3.17-6.72,7.93,2.69,7.93,6.72,7.93S175,71.17,175,66.41"/><path class="cls-2" d="M185.38,58.1c2.88,0,4.64,1.7,4.64,4.46,0,2.3-1.75,4.53-4,4.53a5.8,5.8,0,0,1,1.7,1.67s2,2.92,3,3.93a4.3,4.3,0,0,0,3.23,1.79v.24h-1.3a5.09,5.09,0,0,1-4.14-2.08c-.27-.33-2.95-4.22-3.13-4.45-.62-.78-1.31-1.6-2.18-1.6v-.22s.54,0,1.25,0a3.55,3.55,0,0,0,3.71-2.46,5.28,5.28,0,0,0,.15-1.42c-.06-2.15-1.18-3.52-2.94-3.62-1.22-.07-2.65,0-3,0V73a1.51,1.51,0,0,0,1.52,1.49h.3v.24H179v-.24h.3A1.52,1.52,0,0,0,180.8,73V59.83a1.52,1.52,0,0,0-1.52-1.49H179V58.1Z"/><path class="cls-2" d="M203.67,58.08a10.4,10.4,0,0,0,2.86-.44v3h-.24V60.2a1.41,1.41,0,0,0-1.36-1.41h-4.49V73A1.51,1.51,0,0,0,202,74.48h.31v.24h-5.2v-.24h.31A1.53,1.53,0,0,0,198.89,73V58.79h-4.51A1.41,1.41,0,0,0,193,60.2v.43h-.24v-3a10.27,10.27,0,0,0,2.86.44Z"/><path class="cls-2" d="M215.72,67.72a3.72,3.72,0,0,1,1.19,2.89,4.19,4.19,0,0,1-4.45,4.44,6.19,6.19,0,0,1-4-1.3,7.35,7.35,0,0,1,.28-3.3h.21c-.24,2.44,1.31,4,3.42,3.89a3.16,3.16,0,0,0,3.18-3.18A2.88,2.88,0,0,0,214.6,69l-4.55-4.23a4,4,0,0,1,2.89-6.95,10,10,0,0,1,2,.24h.95v2.91h-.23A2.46,2.46,0,0,0,213,58.48a2.79,2.79,0,0,0-2.93,2.73,3,3,0,0,0,1,2.19Z"/></svg>